<svg xmlns="http://www.w3.org/2000/svg" viewBox="0 0 600 400" fill="none" stroke-linecap="round" stroke-linejoin="round"><rect width="600" height="400" fill="#e9dcc6"/>
<path d="M120 300V180c0-40 30-60 70-60h60" stroke="#2b2118" stroke-width="12"/>
<path d="M250 100v40M230 120h40" stroke="#2b2118" stroke-width="12"/>
<path d="M120 300h-30M120 300h30" stroke="#2b2118" stroke-width="12"/>
<path d="M120 320c0 0-16 22-16 32a16 16 0 0 0 32 0c0-10-16-32-16-32z" fill="#6e8b6a"/>
<path d="M360 130l100 100" stroke="#2b2118" stroke-width="14"/>
<path d="M360 130l100 100" stroke="#c9694a" stroke-width="6"/>
<circle cx="345" cy="115" r="34" fill="#f6efe4" stroke="#2b2118" stroke-width="8"/>
<circle cx="345" cy="115" r="10" fill="#e9dcc6" stroke="#2b2118" stroke-width="6"/>
<path d="M472 240l24 24-14 14-24-24z" fill="#2b2118"/>
<rect x="330" y="270" width="200" height="90" rx="14" fill="#f6efe4" stroke="#2b2118" stroke-width="4"/>
<path d="M350 296l10 10 18-20M350 330l10 10 18-20" stroke="#6e8b6a" stroke-width="5"/>
<path d="M395 300h110M395 334h80" stroke="#8a7a68" stroke-width="5"/>
</svg>