<svg xmlns="http://www.w3.org/2000/svg" viewBox="0 0 600 340" fill="none" stroke-linecap="round" stroke-linejoin="round"><rect width="600" height="340" fill="#f6efe4"/>
<path d="M-20 250C80 210 160 280 260 250s170-90 260-60 140 40 140 40" stroke="#c8d3d9" stroke-width="46"/>
<path d="M-20 250C80 210 160 280 260 250s170-90 260-60 140 40 140 40" stroke="#aebfc9" stroke-width="3" stroke-dasharray="14 14" opacity=".6"/>
<g stroke="#dccbb0" stroke-width="4"><path d="M60 40l90 150M150 20l80 130M260 10l60 140M360 30l30 110M430 20l-10 120M40 130h240M110 90h160M300 110h170M260 180l280-40"/></g>
<g stroke="#e9dcc6" stroke-width="8"><path d="M200 60l40 120M480 40l-30 150"/></g>
<path d="M140 150l-14-70h20l10 40h20v-40h20l-6 70z" fill="#2b2118"/>
<path d="M136 80h64" stroke="#2b2118" stroke-width="6"/>
<circle cx="330" cy="120" r="44" fill="#e3eadf" stroke="#6e8b6a" stroke-width="3" stroke-dasharray="6 6"/>
<g transform="translate(330 118)"><path d="M0-30c-14 0-24 10-24 24 0 18 24 40 24 40s24-22 24-40c0-14-10-24-24-24z" fill="#c9694a" stroke="#2b2118" stroke-width="3"/><circle r="8" cy="-6" fill="#f6efe4"/></g>
<rect x="358" y="88" width="196" height="48" rx="12" fill="#2b2118"/>
<text x="372" y="108" font-family="Outfit, Trebuchet MS, sans-serif" font-size="14" font-weight="700" fill="#f6efe4">Rental Partners</text>
<text x="372" y="126" font-family="Nunito Sans, Segoe UI, sans-serif" font-size="12" fill="#d9ccbb">Námestie 1. mája 11, Staré Mesto</text>
<text x="112" y="172" font-family="Nunito Sans, Segoe UI, sans-serif" font-size="12" font-weight="700" fill="#6b5b4e">Hradný vrch</text>
<text x="300" y="196" font-family="Nunito Sans, Segoe UI, sans-serif" font-size="12" font-weight="700" fill="#6b5b4e">Staré Mesto</text>
<text x="380" y="270" font-family="Nunito Sans, Segoe UI, sans-serif" font-size="12" font-weight="700" fill="#7f95a3">Dunaj</text>
</svg>